<?xml version="1.0" standalone="no"?>
<!DOCTYPE svg PUBLIC "-//W3C//DTD SVG 20010904//EN"
 "http://www.w3.org/TR/2001/REC-SVG-20010904/DTD/svg10.dtd">
<svg version="1.0" xmlns="http://www.w3.org/2000/svg"
 width="303.000000pt" height="303.000000pt" viewBox="0 0 303.000000 303.000000"
 preserveAspectRatio="xMidYMid meet">
<metadata>
Created by potrace 1.11, written by Peter Selinger 2001-2013
</metadata>
<g transform="translate(0.000000,303.000000) scale(0.100000,-0.100000)"
fill="#000000" stroke="none">
<path d="M460 2894 c-213 -56 -390 -232 -445 -444 -25 -95 -17 -272 17 -360
27 -73 938 -1656 1000 -1738 70 -94 209 -181 338 -213 70 -17 209 -17 280 0
108 26 217 87 294 165 67 67 99 120 538 881 257 446 479 836 493 868 129 282
4 641 -273 785 -143 75 -90 72 -1197 71 -830 0 -999 -3 -1045 -15z m255 -189
c77 -20 157 -68 207 -125 43 -48 419 -690 411 -702 -6 -12 -697 -9 -776 2
-257 37 -423 293 -349 537 33 109 116 208 219 262 76 39 194 50 288 26z m1235
10 c0 -3 -15 -24 -32 -48 -18 -24 -116 -188 -218 -365 -102 -177 -187 -322
-190 -322 -3 0 -81 134 -175 297 -93 164 -190 327 -213 363 -24 36 -46 68 -48
73 -3 4 193 7 435 7 243 0 441 -2 441 -5z m565 -10 c178 -46 304 -199 313
-380 7 -138 -33 -240 -133 -334 -67 -63 -138 -97 -230 -111 -99 -14 -775 -13
-775 1 0 6 84 158 188 337 122 213 203 341 232 372 108 111 256 153 405 115z
m-1228 -1028 l52 -2 -191 -330 c-105 -181 -198 -349 -206 -373 -9 -23 -20 -41
-24 -40 -6 2 -438 743 -438 751 0 3 744 -3 807 -6z m1253 7 c0 -7 -419 -736
-430 -747 -4 -5 -19 17 -34 48 -14 31 -104 193 -200 359 -96 166 -178 309
-182 319 -6 16 22 17 397 20 222 1 414 3 427 5 12 1 22 -1 22 -4z m-832 -440
c104 -182 197 -355 206 -384 45 -151 -2 -321 -117 -427 -93 -86 -184 -118
-312 -111 -154 8 -282 94 -353 237 -35 72 -37 79 -37 175 0 66 6 115 16 141
20 54 398 711 404 703 1 -2 88 -152 193 -334z"/>
</g>
</svg>
